<svg id="Capa_1" data-name="Capa 1" xmlns="http://www.w3.org/2000/svg" xmlns:xlink="http://www.w3.org/1999/xlink" viewBox="0 0 1439.86 2279.66"><defs><style>.cls-1{fill:url(#Degradado_sin_nombre_23);}.cls-2{fill:url(#Degradado_sin_nombre_6);}</style><linearGradient id="Degradado_sin_nombre_23" x1="0.14" y1="1100.17" x2="704.55" y2="1100.17" gradientUnits="userSpaceOnUse"><stop offset="0" stop-color="#d9d9d9"/><stop offset="1" stop-color="#fff"/></linearGradient><linearGradient id="Degradado_sin_nombre_6" x1="0.14" y1="1440.36" x2="1440" y2="1440.36" gradientUnits="userSpaceOnUse"><stop offset="0" stop-color="#35a8e0"/><stop offset="1" stop-color="#1d70b7"/></linearGradient></defs><path class="cls-1" d="M.14,280.34c0,45.29,74.78,122.85,103.44,155.89A416.62,416.62,0,0,0,282.24,556.89c53.49,18.31,109.86,25.38,164,41.27,60.12,17.65,109,49.72,155.55,91.08,20.34,18.08,102.77,81.88,102.77,108.82V1920H.14Z" transform="translate(-0.14 -280.34)"/><path class="cls-2" d="M.14,783.1c115.21,62.06,287.37,117.09,464.51,0C693.7,631.69,662,593,846,441c85.77-70.86,366-249.36,594,36.85V2560H.14Z" transform="translate(-0.14 -280.34)"/></svg>